<svg width="100" height="58" viewBox="0 0 100 58" fill="none" xmlns="http://www.w3.org/2000/svg">
<g clip-path="url(#clip0_2978_23)">
<path d="M23.0098 57.9998H51.8063C57.5687 58.0019 63.2367 56.5681 68.2759 53.8335C73.3151 51.0989 77.5595 47.1536 80.6089 42.3696H51.8063C46.0449 42.368 40.3779 43.802 35.3397 46.5366C30.3015 49.2713 26.0582 53.2163 23.0098 57.9998Z" fill="#68AEE2"/>
<path d="M23.0098 36.4607H51.8063C57.568 36.4629 63.2354 35.0297 68.2745 32.2962C73.3136 29.5627 77.5584 25.6189 80.6089 20.8364H51.8063C46.0453 20.8336 40.3785 22.2665 35.3403 25.0001C30.3021 27.7337 26.0585 31.6779 23.0098 36.4607Z" fill="#68AEE2"/>
<path d="M80.6089 7.37075e-07H51.8063C46.0456 -0.00118674 40.3795 1.43247 35.3415 4.16592C30.3036 6.89937 26.0598 10.8426 23.0098 15.6243H51.8063C57.5682 15.6276 63.2361 14.1949 68.2753 11.4613C73.3146 8.72768 77.5592 4.78326 80.6089 7.37075e-07Z" fill="#68AEE2"/>
<path d="M21.4855 2.12256C24.9884 2.12256 25.4897 3.49352 25.4897 6.12318C25.4897 6.48365 25.4897 8.94784 25.4897 9.04239H30.2006C30.2006 9.04239 30.2006 11.2347 30.2006 11.7784C30.2006 12.7003 29.3671 13.0253 28.4249 13.0194C27.4828 13.0135 26.6131 13.0194 25.5018 13.0194C25.5018 14.5499 25.5018 20.1874 25.5018 21.1802C25.5018 23.1302 27.362 23.4257 28.4249 23.4257C29.0378 23.4271 29.6437 23.298 30.2006 23.0475V27.0658C29.6177 27.1928 29.022 27.2542 28.4249 27.249C25.1877 27.249 21.4312 26.4572 21.4312 21.1802C21.4312 20.5892 21.4674 4.37401 21.4674 4.04309L21.4855 2.12256Z" fill="#001D21"/>
<path d="M54.8506 42.6123C55.4478 42.6123 56.0317 42.7856 56.5283 43.1103C57.0249 43.4349 57.4119 43.8964 57.6405 44.4363C57.8691 44.9762 57.9289 45.5702 57.8123 46.1434C57.6958 46.7165 57.4082 47.243 56.9859 47.6562C56.5636 48.0695 56.0255 48.3509 55.4397 48.4649C54.8539 48.5789 54.2468 48.5204 53.695 48.2967C53.1432 48.0731 52.6716 47.6944 52.3397 47.2085C52.0079 46.7226 51.8308 46.1514 51.8308 45.567C51.8308 44.7833 52.149 44.0318 52.7153 43.4777C53.2816 42.9236 54.0497 42.6123 54.8506 42.6123Z" fill="#001D21"/>
<path d="M8.76054 12.4097C9.73763 12.3039 10.7262 12.4407 11.635 12.8073C12.5439 13.174 13.3437 13.7587 13.9606 14.5076C14.0904 14.645 14.1722 14.8193 14.1939 15.0053C14.2156 15.1912 14.1762 15.3791 14.0814 15.5417C14.0049 15.6925 13.887 15.8194 13.7408 15.9081C13.5946 15.9969 13.426 16.0439 13.254 16.044C10.506 16.044 4.49058 16.044 4.19465 16.044C5.07642 14.0348 6.6769 12.6461 8.76054 12.4097ZM18.2185 21.3919H17.8621C16.5878 21.3919 14.9692 21.3919 13.713 21.3919L13.3989 21.7169C12.8183 22.2984 12.1092 22.7419 11.326 23.0134C10.5429 23.2849 9.70658 23.3771 8.88133 23.2829C7.76994 23.1652 6.72049 22.7229 5.86953 22.0136C5.01857 21.3043 4.4055 20.3608 4.11009 19.3059H14.8303C16.7267 19.3059 18.0312 17.7813 18.0977 15.9317C18.1469 14.8886 17.9025 13.8522 17.3911 12.9357C16.53 11.637 15.3507 10.5696 13.9604 9.8306C12.5701 9.09163 11.0131 8.70455 9.43093 8.70459C8.82262 8.70775 8.21597 8.76711 7.61907 8.88187C7.05266 9.01085 6.49736 9.18274 5.95819 9.39598C5.17644 9.70352 4.43449 10.1002 3.74772 10.5778C2.28721 11.6455 1.17176 13.1021 0.534682 14.7735C0.199272 15.7614 0.0200451 16.7936 0.00320176 17.8345C-0.0185662 18.6872 0.0707322 19.539 0.268942 20.3696C0.852048 22.5011 2.1925 24.3595 4.0497 25.6112L4.22484 25.7294L4.45435 25.8712L4.70801 26.0189C5.88511 26.6831 7.19479 27.0909 8.54769 27.2147C9.90058 27.3384 11.2648 27.1751 12.5473 26.7358C13.8298 26.2966 15.0004 25.5918 15.9791 24.6696C16.9578 23.7474 17.7216 22.6294 18.2185 21.3919Z" fill="#001D21"/>
<path d="M77.7489 30.0132C76.9396 30.0487 75.333 30.0132 73.7205 30.0132C73.7205 30.0132 73.7205 40.0591 73.7205 40.65C73.7205 43.5279 71.6308 44.3788 69.7163 44.3788C67.8017 44.3788 65.7241 43.4688 65.7241 40.65C65.7241 39.9882 65.6275 32.5011 65.6214 30.0132H61.6655C61.6655 30.0132 61.6655 40.52 61.7138 42.3578C61.7561 44.9698 63.1996 46.6894 65.561 47.6408C66.872 48.1833 68.2808 48.4628 69.7042 48.4628C71.1275 48.4628 72.5364 48.1833 73.8473 47.6408C76.3477 46.6421 77.7428 44.8043 77.7428 42.0742C77.7428 38.3808 77.7428 30.0073 77.7428 30.0073" fill="#001D21"/>
<path d="M90.8806 44.3793C89.8056 44.3793 88.7546 44.0674 87.8608 43.483C86.9669 42.8986 86.2702 42.0679 85.8588 41.0961C85.4474 40.1243 85.3397 39.055 85.5495 38.0233C85.7592 36.9916 86.2769 36.044 87.0371 35.3002C87.7973 34.5564 88.7658 34.0499 89.8202 33.8447C90.8746 33.6395 91.9675 33.7448 92.9607 34.1473C93.954 34.5499 94.8029 35.2315 95.4002 36.1061C95.9974 36.9807 96.3162 38.009 96.3162 39.0609C96.321 39.7606 96.1837 40.4543 95.9123 41.1017C95.6408 41.7491 95.2406 42.3373 94.7349 42.8321C94.2292 43.3269 93.6281 43.7184 92.9664 43.984C92.3048 44.2496 91.5958 44.384 90.8806 44.3793ZM100 31.166V30.2323V29.8955H99.33C98.0254 29.8955 96.431 30.7701 96.3102 31.7629C92.6865 28.8791 87.118 29.4819 84.0257 32.7379C82.463 34.3715 81.5546 36.5016 81.4669 38.7374C81.3793 40.9733 82.1184 43.1652 83.5486 44.9111C86.5261 48.5276 92.2093 49.6799 96.3102 46.5125C96.3102 47.5467 97.9771 48.4863 99.33 48.4863H100V47.9485V31.166Z" fill="#001D21"/>
<path d="M42.4033 23.1644C41.5409 23.1583 40.6924 22.9514 39.9279 22.5609C39.1633 22.1705 38.5047 21.6076 38.0065 20.9189C37.4249 20.054 37.1161 19.0409 37.1187 18.0056C37.0995 16.6123 37.6467 15.2686 38.64 14.2701C39.6333 13.2716 40.9914 12.7001 42.4154 12.6813C43.8393 12.6625 45.2126 13.1979 46.2332 14.1698C47.2537 15.1417 47.8378 16.4705 47.857 17.8638C47.8693 18.5655 47.737 19.2625 47.4682 19.9131C47.1994 20.5638 46.7995 21.1549 46.2923 21.6512C45.7851 22.1474 45.1809 22.5387 44.5159 22.8018C43.8509 23.0648 43.1386 23.1942 42.4214 23.1822L42.4033 23.1644ZM51.5653 8.68066H50.8526C49.6085 8.68066 48.0986 9.48433 47.8751 10.4535C47.0847 9.90565 46.2156 9.47551 45.2962 9.17705C43.6107 8.6248 41.7992 8.55384 40.0739 8.97246C38.3487 9.39107 36.781 10.282 35.5544 11.5408C34.7404 12.402 34.0973 13.404 33.658 14.4954C33.1842 15.6199 32.942 16.8248 32.9453 18.041C32.947 18.4859 32.9793 18.9301 33.042 19.3706C33.1579 20.0889 33.3606 20.7911 33.6459 21.4625C34.5157 23.6113 36.1753 25.364 38.2986 26.3766C40.4219 27.3891 42.8554 27.5881 45.1211 26.9346C46.0953 26.6264 47.0173 26.1783 47.857 25.605C47.857 27.8564 47.3195 28.4001 47.0296 28.9733C46.5019 29.8329 45.7392 30.531 44.8275 30.9888C43.9157 31.4467 42.8914 31.6459 41.87 31.5642C40.8486 31.4825 39.8709 31.1229 39.0474 30.5262C38.2238 29.9295 37.5871 29.1194 37.2093 28.1874H33.0963C33.5683 30.2383 34.74 32.071 36.4185 33.3835C38.0969 34.696 40.1821 35.4102 42.3308 35.4086C43.8581 35.4633 45.3738 35.1294 46.7299 34.4396C48.0859 33.7498 49.2359 32.7276 50.0675 31.4729C50.5929 30.7106 51.4445 29.387 51.5109 26.2905C51.5109 25.8355 51.5653 8.75158 51.5653 8.68066Z" fill="#001D21"/>
</g>
<defs>
<clipPath id="clip0_2978_23">
<rect width="100" height="58" fill="white"/>
</clipPath>
</defs>
</svg>
