<svg id="Слой_1" data-name="Слой 1" xmlns="http://www.w3.org/2000/svg" viewBox="0 0 2019.1 502.13"><defs><style>.cls-1{fill:#1d1d1b;}.cls-2{fill:#27a737;fill-rule:evenodd;}</style></defs><path class="cls-1" d="M232.41,1024.18V1079h133.4v81.32H232.41v102.34H124.6V942.85h260v81.33ZM1926,1262.66l-55.29-85.43-53.91,85.43H1693.93l115.59-161.27L1698,942.85h121.07c26.58,39.3,92.88,127.06,230.25,319.81Zm-244-81.32v81.32H1416.13V942.85h260v81.33h-154v37.45h135.24v77.67H1522.14v42Zm-495.23-154.89h-93.67v-83.6H1388.3v83.6h-93.67v236.21H1186.81ZM912.22,1270q-73.56,0-114.65-39.75t-41.13-111.49V942.85H864.25v172.69q0,35.19,12.57,51.17t36.31,16q23.75,0,36.32-16T962,1115.54V942.85h106v175.88q0,71.76-41.09,111.49T912.22,1270m-356.34-87.71H526.63v80.4H418.81V942.85h154q44.31,0,77.22,14.62t50.71,42q17.82,27.43,17.82,64,0,34.24-15.55,59.85T658.22,1164l67.16,98.69H610.24Zm53.9-118.79q0-17.82-11-27.66T565.93,1026h-39.3v74.92h39.3q21.93,0,32.88-9.81t11-27.64" transform="translate(-124.6 -902.18)"/><path class="cls-2" d="M1918.15,1063.27c22.49-50.94,84-98.29,127.9-116.37-64.67,2-138.8,101-138.8,101C1876.81,904,2055.5,870.18,2143.7,931c-101.12,34.94-60.42,188.9-225.55,132.27" transform="translate(-124.6 -902.18)"/><path class="cls-1" d="M171.48,1335.1v68h-9v-30.67H133.62v30.67h-9v-68h9v28.73h28.84V1335.1Z" transform="translate(-124.6 -902.18)"/><path class="cls-1" d="M224.89,1387.81H194.6l-5.43,15.24h-9.61l25-68h10.19l25.14,68h-9.61Zm-3.11-8.45-12-33.68-12.13,33.68Z" transform="translate(-124.6 -902.18)"/><path class="cls-1" d="M282.65,1343.64H264.5v59.41h-8.93v-59.41H237.51v-8.54h45.14Z" transform="translate(-124.6 -902.18)"/><path class="cls-1" d="M339.64,1335.1l-21.83,51.83c-5,11.75-12.43,16.79-23.4,16.12v-8.35c7.57.77,11.94-2.23,14.95-9.32l.58-1.55L287,1335.1h9.11l18,38.83,16.41-38.83Z" transform="translate(-124.6 -902.18)"/><path class="cls-1" d="M393.83,1356.16a21.23,21.23,0,0,1-21.26,21.16H356.94v25.73h-9v-68h24.66A21.15,21.15,0,0,1,393.83,1356.16Zm-9,0a12.39,12.39,0,0,0-12.23-12.61H356.94v25.33h15.63A12.48,12.48,0,0,0,384.8,1356.16Z" transform="translate(-124.6 -902.18)"/><path class="cls-1" d="M437.52,1387.81H407.23l-5.43,15.24h-9.61l25-68h10.19l25.14,68H443Zm-3.11-8.45-12-33.68-12.13,33.68Z" transform="translate(-124.6 -902.18)"/><path class="cls-1" d="M455.2,1395c8.44,1.07,13.39-3.4,13.39-21.35V1335.1h40.48v68h-9v-59.41H477.62v30c0,25-9.8,30.67-22.42,29.51Z" transform="translate(-124.6 -902.18)"/><path class="cls-1" d="M569.56,1381.89a21.18,21.18,0,0,1-21.26,21.16H523.65v-68h9v25.72H548.3A21.22,21.22,0,0,1,569.56,1381.89Zm-9,0a12.39,12.39,0,0,0-12.23-12.62H532.67v25.34H548.3A12.42,12.42,0,0,0,560.53,1381.89Z" transform="translate(-124.6 -902.18)"/><path class="cls-1" d="M627.14,1335.1v68h-9v-30.67H589.28v30.67h-9v-68h9v28.73h28.84V1335.1Z" transform="translate(-124.6 -902.18)"/><path class="cls-1" d="M650.74,1335.1v68h-9v-68Z" transform="translate(-124.6 -902.18)"/><path class="cls-1" d="M726,1395.87v7.66h-8.84v-7.66c-18.92-1.26-32.12-10.58-32.12-26.8s13.2-25.52,32.12-26.78v-7.68H726v7.68c18.93,1.26,32.23,10.57,32.23,26.78S744.91,1394.61,726,1395.87Zm-8.84-8.25v-37.09c-14.17,1-23.19,6.89-23.19,18.54S703,1386.64,717.14,1387.62Zm32-18.55c0-11.65-9-17.57-23.2-18.54v37.09C740.15,1386.64,749.18,1380.72,749.18,1369.07Z" transform="translate(-124.6 -902.18)"/><path class="cls-1" d="M814,1356.16a21.23,21.23,0,0,1-21.25,21.16H777.15v25.73h-9v-68h24.66A21.14,21.14,0,0,1,814,1356.16Zm-9,0a12.38,12.38,0,0,0-12.22-12.61H777.15v25.33h15.64A12.48,12.48,0,0,0,805,1356.16Z" transform="translate(-124.6 -902.18)"/><path class="cls-1" d="M869.77,1335.1l-21.83,51.83c-5,11.75-12.43,16.79-23.4,16.12v-8.35c7.57.77,11.94-2.23,15-9.32l.58-1.55-22.9-48.73h9.11l18,38.83,16.4-38.83Z" transform="translate(-124.6 -902.18)"/><path class="cls-1" d="M916.38,1403.05l-29.32-32.62v32.62h-9v-68h9v30.77l28.35-30.77h11.06l-30,33.1,31,34.85Z" transform="translate(-124.6 -902.18)"/><path class="cls-1" d="M975.12,1343.64H957v59.41H948v-59.41H930v-8.54h45.14Z" transform="translate(-124.6 -902.18)"/><path class="cls-1" d="M976.59,1369.07a35.19,35.19,0,1,1,35.14,35.24A34.9,34.9,0,0,1,976.59,1369.07Zm61.35,0c0-14.94-11.36-26.49-26.21-26.49s-26.21,11.55-26.21,26.49,11.35,26.4,26.21,26.4S1037.94,1383.93,1037.94,1369.07Z" transform="translate(-124.6 -902.18)"/><path class="cls-1" d="M1114,1380.91c0,12.23-9.12,22.14-21.45,22.14h-34.65v-68h27.47c11,0,18.44,7.57,18.44,17.18a15.5,15.5,0,0,1-2.43,8.35A22,22,0,0,1,1114,1380.91Zm-47.07-37.36v15h25.52a9,9,0,0,0,2.33-6.12c0-4.94-3.4-8.92-9.41-8.92Zm38,37.17c0-7.77-5-13.88-13.6-13.88h-24.45v27.77h24.36C1099.79,1394.61,1104.94,1388.39,1104.94,1380.72Z" transform="translate(-124.6 -902.18)"/><path class="cls-1" d="M1133.39,1335.1v68h-9v-68Z" transform="translate(-124.6 -902.18)"/><path class="cls-1" d="M1211.84,1343.64h-18.15v59.41h-8.93v-59.41H1166.7v-8.54h45.14Z" transform="translate(-124.6 -902.18)"/><path class="cls-1" d="M1254.66,1387.81h-30.29l-5.43,15.24h-9.61l25-68h10.19l25.14,68h-9.61Zm-3.11-8.45-12-33.68-12.13,33.68Z" transform="translate(-124.6 -902.18)"/><path class="cls-1" d="M1298.45,1369.07a35.19,35.19,0,1,1,35.14,35.24A34.9,34.9,0,0,1,1298.45,1369.07Zm61.35,0c0-14.94-11.36-26.49-26.21-26.49s-26.21,11.55-26.21,26.49,11.35,26.4,26.21,26.4S1359.8,1383.93,1359.8,1369.07Z" transform="translate(-124.6 -902.18)"/><path class="cls-1" d="M1435.82,1380.91c0,12.23-9.12,22.14-21.45,22.14h-34.65v-68h27.47c11,0,18.45,7.57,18.45,17.18a15.58,15.58,0,0,1-2.43,8.35A22,22,0,0,1,1435.82,1380.91Zm-47.07-37.36v15h25.52a9,9,0,0,0,2.33-6.12c0-4.94-3.39-8.92-9.41-8.92Zm38,37.17c0-7.77-5.06-13.88-13.59-13.88h-24.46v27.77h24.36C1421.65,1394.61,1426.8,1388.39,1426.8,1380.72Z" transform="translate(-124.6 -902.18)"/><path class="cls-1" d="M1442.15,1369.07a35.19,35.19,0,1,1,35.14,35.24A34.9,34.9,0,0,1,1442.15,1369.07Zm61.35,0c0-14.94-11.36-26.49-26.21-26.49s-26.21,11.55-26.21,26.49,11.35,26.4,26.21,26.4S1503.5,1383.93,1503.5,1369.07Z" transform="translate(-124.6 -902.18)"/><path class="cls-1" d="M1566.91,1335.1v68h-9v-26.6a35.34,35.34,0,0,1-14.85,3c-13.31,0-22.14-8.15-22.14-20.09V1335.1h9v23.68c0,7.29,4.75,12.14,13.2,12.14a34.42,34.42,0,0,0,14.75-3V1335.1Z" transform="translate(-124.6 -902.18)"/><path class="cls-1" d="M1620.79,1394.51v8.54h-39.31v-68h38.82v8.54h-29.8v20.87h27.37V1373H1590.5v21.56Z" transform="translate(-124.6 -902.18)"/><path class="cls-1" d="M1687.88,1380.91c0,12.23-9.13,22.14-21.45,22.14h-34.65v-68h27.47c11,0,18.43,7.57,18.43,17.18a15.49,15.49,0,0,1-2.42,8.35A22,22,0,0,1,1687.88,1380.91Zm-47.08-37.36v15h25.53a9,9,0,0,0,2.33-6.12c0-4.94-3.4-8.92-9.41-8.92Zm38,37.17c0-7.77-5-13.88-13.59-13.88H1640.8v27.77h24.37C1673.71,1394.61,1678.85,1388.39,1678.85,1380.72Z" transform="translate(-124.6 -902.18)"/><path class="cls-1" d="M1707.31,1335.1v68h-9v-68Z" transform="translate(-124.6 -902.18)"/><path class="cls-1" d="M1790.71,1335.1v68h-9v-26.6a35.34,35.34,0,0,1-14.85,3c-13.3,0-22.13-8.15-22.13-20.09V1335.1h9v23.68c0,7.29,4.75,12.14,13.2,12.14a34.42,34.42,0,0,0,14.75-3V1335.1Z" transform="translate(-124.6 -902.18)"/><path class="cls-1" d="M1843.43,1352.76l-30.87,50.29h-7.28v-68h9v50.19l30.77-50.19h7.28v68h-8.92Z" transform="translate(-124.6 -902.18)"/><path class="cls-1" d="M1913.82,1403.05h-9v-59.41H1876v59.41h-9v-68h46.89Z" transform="translate(-124.6 -902.18)"/><path class="cls-1" d="M1924.81,1369.07c0-19.6,14.75-35.23,35.52-35.23,15.33,0,28.44,9.8,32.23,23.58H1983c-3.2-8.83-12.24-14.84-22.62-14.84-15.92,0-26.6,11.55-26.6,26.49s10.68,26.4,26.6,26.4c10.38,0,19.42-5.92,22.62-14.75h9.61c-3.79,13.79-16.9,23.59-32.23,23.59C1939.56,1404.31,1924.81,1388.58,1924.81,1369.07Z" transform="translate(-124.6 -902.18)"/><path class="cls-1" d="M2040.43,1352.76l-30.87,50.29h-7.28v-68h9v50.19l30.77-50.19h7.28v68h-8.93Z" transform="translate(-124.6 -902.18)"/></svg>