<svg id="Layer_1" data-name="Layer 1" width="140px" height="72px" xmlns="http://www.w3.org/2000/svg" xmlns:xlink="http://www.w3.org/1999/xlink" viewBox="0 0 740.36 379.38"><defs><style>.cls-1{fill:none;}.cls-2{clip-path:url(#clip-path);}.cls-3{fill:#373f5f;}.cls-4{fill:#c64d4f;}.cls-5{fill:#fff;}</style><clipPath id="clip-path" transform="translate(-205.82 -183.31)"><rect class="cls-1" x="205.82" y="183.31" width="740.36" height="278.22"/></clipPath></defs><title>TAS_logo_slogan</title><g class="cls-2"><path class="cls-3" d="M875.85,296a2.73,2.73,0,0,0-3.15,2.54s-4,9.38-11.07,13c-3.22,1.65-4.58,2.52-11.91,2.31H812.84c-19.94-1.42-22-22.28-22-22.28,0-2.54-.27-5.92-.27-7.37V260.52c.54-21.33,17.09-26.23,17.09-26.23a31,31,0,0,1,7.83-.76h36.89c16.73.55,21.14,18.8,21.14,18.8a3.57,3.57,0,0,0,3.11,2.3h67a2.59,2.59,0,0,0,2.57-2.6v-7.17c-1-49.58-46.05-61.59-55.4-61.36-2.52,0-6-.19-7.45-.19H779.17c-31.72.14-49.71,23.53-56.1,39.57a52.92,52.92,0,0,0-3.74,15.64c-.13,2.9-.37,7.55-.37,9v55c2.88,52.47,48.4,61.27,55.24,61.5,2.3.08,6.15.22,7.58.22H885.94C933.52,361.7,945.8,320,946,306.66c0-3.87.13-5.37.13-6.8v-1.18a2.61,2.61,0,0,0-2.57-2.65Z" transform="translate(-205.82 -183.31)"/></g><path class="cls-3" d="M469.26,188c.73-1.26.15-2.24-1.27-2.24H208.71a2.58,2.58,0,0,0-2.59,2.56v49.88a2.59,2.59,0,0,0,2.59,2.6h63.58a2.59,2.59,0,0,1,2.58,2.6V358.95a2.61,2.61,0,0,0,2.6,2.6H377.55a2.61,2.61,0,0,0,2.6-2.6V243.44a2.58,2.58,0,0,1,2.57-2.6h52.49a5.12,5.12,0,0,0,3.91-2.24L469.26,188Z" transform="translate(-205.82 -183.31)"/><path class="cls-3" d="M511.1,185.8a6.55,6.55,0,0,0-4.33,1.92s-46,45.71-45.85,109.25c.05,39.25,16.1,62.53,16.1,62.53a6.12,6.12,0,0,0,4.19,2.06h65.57c1.42,0,1.84-.9.94-2,0,0-21.15-26.95-20.77-63.59.31-32.86,19.71-53.5,19.71-53.5a5.82,5.82,0,0,1,4.13-2.07H592a2.58,2.58,0,0,1,2.58,2.59v116a2.6,2.6,0,0,0,2.6,2.6h93.23a2.61,2.61,0,0,0,2.62-2.6V188.36a2.6,2.6,0,0,0-2.62-2.56Z" transform="translate(-205.82 -183.31)"/><path class="cls-4" d="M526.95,296A103.17,103.17,0,0,0,529,316.56H662.87l17.59-27.68H527.26c-.19,2.3-.31,4.68-.31,7.11" transform="translate(-205.82 -183.31)"/><path class="cls-4" d="M531.66,268.46a85.15,85.15,0,0,0-4.06,16.94H682.68l10.77-16.94Z" transform="translate(-205.82 -183.31)"/><path class="cls-3" d="M205.82,390.1a2.59,2.59,0,0,1,2.57-2.59H943.28a2.61,2.61,0,0,1,2.59,2.59v68.83a2.59,2.59,0,0,1-2.59,2.6H208.39a2.57,2.57,0,0,1-2.57-2.6V390.1Z" transform="translate(-205.82 -183.31)"/><polygon class="cls-5" points="68.4 227.09 57.27 227.09 57.27 265.19 49.92 265.19 49.92 227.09 38.75 227.09 38.75 220.97 69.35 220.97 68.4 227.09 68.4 227.09"/><path class="cls-5" d="M326.35,430.73c-2-6.67-3.78-13-5.24-19.15-1.86,6.63-3.79,13-5.6,19.15Zm5.24,17.77L328,436.87H313.7l-3.56,11.64h-7.62L317,404.28h8.48l14.12,44.22Z" transform="translate(-205.82 -183.31)"/><path class="cls-5" d="M392.4,449.14a17.36,17.36,0,0,1-14-6.4c-3.32-4-5.08-9.41-5.08-15.58a27.92,27.92,0,0,1,3-13.37,18.28,18.28,0,0,1,16.29-10.15c4.31,0,8.38,1.27,11,3.46l-3.4,4.78a12.1,12.1,0,0,0-7.54-2.5,9.81,9.81,0,0,0-8.8,5.33c-1.54,2.67-2.31,6.38-2.31,11.57s.57,8.36,1.72,10.86a10.31,10.31,0,0,0,9.85,6.24,11.61,11.61,0,0,0,7.91-2.79l3.46,4.65a19.17,19.17,0,0,1-12.1,3.91" transform="translate(-205.82 -183.31)"/><path class="cls-5" d="M473.95,408.74l-2,.52a4.66,4.66,0,0,0-2.5,1.1,6.74,6.74,0,0,0-1.35,2.86l-1.14,4.59c-.43,1.87-.82,3.71-2.61,5.38a8.41,8.41,0,0,1-3.12,1.79v.13a8.52,8.52,0,0,1,2.76,1.58,10.08,10.08,0,0,1,2.8,5.09l2,7.09a6.48,6.48,0,0,0,1.47,3.11,6.62,6.62,0,0,0,2.69,1.34l1.92.57-1.35,5.22-2.42-.29c-2.11-.19-5-.58-7-2.47-1.66-1.69-2-3.9-2.36-5.76l-1.47-6.8c-.32-1.31-.82-3.22-2.06-4.32a6.28,6.28,0,0,0-4.34-1.36h-4.21v20.4h-7.34V404.28h7.34v17.83h4.85a6.14,6.14,0,0,0,4.48-1.41c1.14-1.15,1.45-2.9,1.77-4.15l1.22-5.4a9.64,9.64,0,0,1,2.36-5c1.51-1.49,3.14-1.68,5.7-2.05l2.61-.38,1.41,5Z" transform="translate(-205.82 -183.31)"/><path class="cls-5" d="M527.26,409.26c-7.62,0-10.44,6-10.44,16.56,0,11.37,2.9,17.69,10.62,17.69,6.58,0,10-4.86,10-16.75,0-10.75-2.23-17.5-10.13-17.5m.18,39.88c-12.59,0-18.8-9.73-18.8-22.8,0-14.52,7.41-22.71,18.48-22.71,12.46,0,18.45,9.89,18.45,22.75,0,13.81-6.66,22.76-18.14,22.76" transform="translate(-205.82 -183.31)"/><path class="cls-5" d="M620.54,448.5l-2.06-27.41c-.17-2.82-.31-6.34-.31-7.66-.31,1.45-.89,4.25-1.72,7.07l-8.07,28h-6.25l-7.35-26.79c-.83-2.93-1.68-6.9-1.94-8.36,0,1.47-.24,5.71-.41,8.42l-2,26.73h-7.21l4-44.22h9.78l6.77,25a74.27,74.27,0,0,1,1.63,7.54c.22-1.34.79-4.36,1.63-7.41l7-25.17h9.78l3.92,44.22Z" transform="translate(-205.82 -183.31)"/><path class="cls-5" d="M681,442.46c3.33,0,5.26-1,6.27-2a7.08,7.08,0,0,0,1.93-5.27,6.88,6.88,0,0,0-1.93-5.26C685.52,428.31,683,428,681,428h-6.25v14.42Zm13-38.17-1,6H674.72V422h6.11c3.34,0,9,0,12.94,3.84,3.11,3.07,3.57,7.21,3.57,9.72a12.08,12.08,0,0,1-3.12,8.78c-3.67,3.81-9.42,4.11-13.69,4.11H667.36V404.28Z" transform="translate(-205.82 -183.31)"/><path class="cls-5" d="M754.92,430.73c-2-6.67-3.78-13-5.23-19.15-1.87,6.63-3.77,13-5.65,19.15Zm5.21,17.77-3.58-11.64H742.24l-3.58,11.64h-7.59l14.51-44.22h8.5l14.12,44.22Z" transform="translate(-205.82 -183.31)"/><polygon class="cls-5" points="620.47 265.19 620.47 244.72 605.39 244.72 605.39 265.19 598.04 265.19 598.04 220.97 605.39 220.97 605.39 238.73 620.47 238.73 620.47 220.97 627.8 220.97 627.8 265.19 620.47 265.19 620.47 265.19"/><path class="cls-5" d="M906.29,408.74l-2.06.52a4.57,4.57,0,0,0-2.47,1.1,6.16,6.16,0,0,0-1.35,2.86l-1.18,4.59c-.43,1.87-.82,3.71-2.63,5.38a7.92,7.92,0,0,1-3.1,1.79v.13a8.49,8.49,0,0,1,2.78,1.58,9.76,9.76,0,0,1,2.78,5.09l2,7.09a6.29,6.29,0,0,0,1.48,3.11,6.38,6.38,0,0,0,2.69,1.34l1.91.57-1.35,5.22-2.42-.29c-2.11-.19-5.05-.58-7-2.47-1.66-1.69-2-3.9-2.38-5.76l-1.46-6.8c-.32-1.31-.82-3.22-2-4.32a6.3,6.3,0,0,0-4.35-1.36h-4.22v20.4h-7.35V404.28h7.35v17.83h4.84a6.14,6.14,0,0,0,4.49-1.41,8.44,8.44,0,0,0,1.78-4.15l1.24-5.4a9.25,9.25,0,0,1,2.36-5c1.47-1.49,3.12-1.68,5.66-2.05l2.65-.38,1.41,5Z" transform="translate(-205.82 -183.31)"/><path class="cls-3" d="M268.58,524a22.22,22.22,0,0,1-1,6.8,15.71,15.71,0,0,1-2.84,5.32,12.81,12.81,0,0,1-4.51,3.46,15.18,15.18,0,0,1-6.42,1.24h-5.45v20.4a1,1,0,0,1-.1.45.73.73,0,0,1-.32.33,2.36,2.36,0,0,1-.6.21,4.58,4.58,0,0,1-1,.08,4.64,4.64,0,0,1-.94-.08,2.34,2.34,0,0,1-.62-.21.74.74,0,0,1-.33-.33,1,1,0,0,1-.1-.45V511.26a2.69,2.69,0,0,1,.62-2,1.83,1.83,0,0,1,1.2-.56h8.53a20.77,20.77,0,0,1,2.47.14,17.62,17.62,0,0,1,2.81.62,10,10,0,0,1,3.28,1.77,12,12,0,0,1,2.84,3.17,15.47,15.47,0,0,1,1.8,4.29A20.83,20.83,0,0,1,268.58,524Zm-4.19.45a14.43,14.43,0,0,0-1.07-5.87,9,9,0,0,0-2.61-3.59,7.54,7.54,0,0,0-3.21-1.48,17.43,17.43,0,0,0-3.16-.31h-6v23.16h5.71a10.64,10.64,0,0,0,4.61-.89A8.89,8.89,0,0,0,261.8,533a11,11,0,0,0,1.93-3.77A16.56,16.56,0,0,0,264.4,524.4Z" transform="translate(-205.82 -183.31)"/><path class="cls-3" d="M309.38,560.3a3.1,3.1,0,0,1,.18,1,.86.86,0,0,1-.23.6,1.14,1.14,0,0,1-.65.27,8.32,8.32,0,0,1-1.12.06,7.59,7.59,0,0,1-1.09-.06,2,2,0,0,1-.63-.19.82.82,0,0,1-.34-.33,3,3,0,0,1-.21-.49l-4-14.22H282.83L279,561.08a1.59,1.59,0,0,1-.19.49,1.14,1.14,0,0,1-.36.35,1.92,1.92,0,0,1-.63.23,5.29,5.29,0,0,1-1,.08,6.55,6.55,0,0,1-1.14-.08,1.26,1.26,0,0,1-.67-.29.81.81,0,0,1-.23-.58,3,3,0,0,1,.18-1l14.7-50.73a1.48,1.48,0,0,1,.29-.56,1.28,1.28,0,0,1,.5-.35,3.24,3.24,0,0,1,.75-.18,7,7,0,0,1,1-.06,7.27,7.27,0,0,1,1,.06,3.26,3.26,0,0,1,.75.18,1.16,1.16,0,0,1,.49.35,1.65,1.65,0,0,1,.28.56Zm-17.43-46.24h0L284,542.74h16.06Z" transform="translate(-205.82 -183.31)"/><path class="cls-3" d="M340.17,547.32a19.22,19.22,0,0,1-.92,6.06,13.48,13.48,0,0,1-2.81,4.88,12.93,12.93,0,0,1-4.7,3.26,17.17,17.17,0,0,1-6.62,1.17,15.28,15.28,0,0,1-3.8-.43,14.68,14.68,0,0,1-2.89-1,13.15,13.15,0,0,1-1.85-1.07,6.38,6.38,0,0,1-.89-.74,2.29,2.29,0,0,1-.37-.54,2.44,2.44,0,0,1-.19-.64c0-.25-.08-.54-.11-.89s0-.74,0-1.17a4.21,4.21,0,0,1,.16-1.42.53.53,0,0,1,.49-.39,2.05,2.05,0,0,1,1.09.56q.7.56,1.83,1.3a12,12,0,0,0,2.82,1.3,13,13,0,0,0,4.06.56,11.77,11.77,0,0,0,4.3-.76,9.52,9.52,0,0,0,5.53-5.44,11.24,11.24,0,0,0,.78-4.26,13.5,13.5,0,0,0-.73-4.53,9.83,9.83,0,0,0-2.14-3.54,9.68,9.68,0,0,0-3.47-2.31,12.56,12.56,0,0,0-4.69-.82h-5.16a1.05,1.05,0,0,1-.54-.12,1,1,0,0,1-.36-.39,2.1,2.1,0,0,1-.21-.68,6.69,6.69,0,0,1-.07-1,6.06,6.06,0,0,1,.07-.95,2.34,2.34,0,0,1,.21-.7,1.05,1.05,0,0,1,.37-.43.94.94,0,0,1,.52-.14h4.71a12.19,12.19,0,0,0,4.14-.68,8.84,8.84,0,0,0,3.26-2,9.29,9.29,0,0,0,2.13-3.28,12.22,12.22,0,0,0,.76-4.49,12.38,12.38,0,0,0-.52-3.69,7.67,7.67,0,0,0-1.56-2.84,6.94,6.94,0,0,0-2.58-1.81,9.31,9.31,0,0,0-3.59-.64,11.46,11.46,0,0,0-3.81.58,16,16,0,0,0-2.82,1.28,20.91,20.91,0,0,0-2,1.32,2.44,2.44,0,0,1-1.23.62.44.44,0,0,1-.31-.1.8.8,0,0,1-.2-.35,2.93,2.93,0,0,1-.11-.66q0-.41,0-1,0-.41,0-.8a7.2,7.2,0,0,1,.1-.74,3.42,3.42,0,0,1,.18-.64,2.32,2.32,0,0,1,.34-.58,5.85,5.85,0,0,1,1.15-.91,12.85,12.85,0,0,1,2.29-1.17,21,21,0,0,1,3.12-1A16.43,16.43,0,0,1,327,508a12.73,12.73,0,0,1,5.21,1,10.42,10.42,0,0,1,3.72,2.72,11.26,11.26,0,0,1,2.22,4.12,17.83,17.83,0,0,1,.73,5.23,17.15,17.15,0,0,1-.67,5,12.84,12.84,0,0,1-1.8,3.77,9.88,9.88,0,0,1-2.61,2.56,8.85,8.85,0,0,1-3.07,1.3v.08a9.5,9.5,0,0,1,3.67,1.46,11.3,11.3,0,0,1,3,2.91,14.67,14.67,0,0,1,2,4.12A16.79,16.79,0,0,1,340.17,547.32Z" transform="translate(-205.82 -183.31)"/><path class="cls-3" d="M384.73,534.71a53.32,53.32,0,0,1-1.15,11.56,27.68,27.68,0,0,1-3.46,8.82,17.11,17.11,0,0,1-22,5.73,15.09,15.09,0,0,1-5.52-5.36,25.81,25.81,0,0,1-3.18-8.51,57.11,57.11,0,0,1-1-11.33,52.49,52.49,0,0,1,1.14-11.37,26.69,26.69,0,0,1,3.46-8.72,16.59,16.59,0,0,1,5.81-5.58,16.33,16.33,0,0,1,8.19-2,16.07,16.07,0,0,1,7.92,1.85,15.29,15.29,0,0,1,5.53,5.32,25.61,25.61,0,0,1,3.25,8.41A53.84,53.84,0,0,1,384.73,534.71Zm-4.22.45a53.52,53.52,0,0,0-.7-8.88,24.17,24.17,0,0,0-2.3-7.21,12.67,12.67,0,0,0-4.27-4.82,11.74,11.74,0,0,0-6.59-1.75,11.35,11.35,0,0,0-6.57,1.83,13.8,13.8,0,0,0-4.35,4.92,23.83,23.83,0,0,0-2.4,7.21,49.86,49.86,0,0,0-.73,8.7,57.57,57.57,0,0,0,.67,9,24.12,24.12,0,0,0,2.25,7.27,12.5,12.5,0,0,0,4.25,4.84,11.85,11.85,0,0,0,6.65,1.75,11.36,11.36,0,0,0,6.65-1.87,13.83,13.83,0,0,0,4.35-5,24.58,24.58,0,0,0,2.37-7.29A51.21,51.21,0,0,0,380.51,535.16Z" transform="translate(-205.82 -183.31)"/><path class="cls-3" d="M439.7,561.16a1.05,1.05,0,0,1-.1.45.72.72,0,0,1-.34.33,2.68,2.68,0,0,1-.62.21,4.6,4.6,0,0,1-1,.08,4.45,4.45,0,0,1-.91-.08,2.34,2.34,0,0,1-.62-.21.73.73,0,0,1-.33-.33,1.05,1.05,0,0,1-.1-.45V513.07h-.07l-16.52,48.38a1,1,0,0,1-.2.31,1,1,0,0,1-.36.25,2.49,2.49,0,0,1-.54.17,3.79,3.79,0,0,1-.73.06,4.25,4.25,0,0,1-.78-.06A2.16,2.16,0,0,1,416,562a1.08,1.08,0,0,1-.34-.25.64.64,0,0,1-.16-.31l-15.71-48.38h0v48.09a1.05,1.05,0,0,1-.1.45.72.72,0,0,1-.34.33,2.67,2.67,0,0,1-.62.21,4.79,4.79,0,0,1-1,.08,4.39,4.39,0,0,1-.92-.08,2.36,2.36,0,0,1-.6-.21.65.65,0,0,1-.31-.33,1.23,1.23,0,0,1-.08-.45V511.26a2.69,2.69,0,0,1,.62-2,1.82,1.82,0,0,1,1.2-.56h2.14a4.13,4.13,0,0,1,1.43.23,3.23,3.23,0,0,1,1.09.66,3.84,3.84,0,0,1,.79,1.05,9.47,9.47,0,0,1,.58,1.4l13.86,42.36h.16l14.44-42.2a9.87,9.87,0,0,1,.7-1.67,5,5,0,0,1,.78-1.09,2.31,2.31,0,0,1,.88-.58,3.08,3.08,0,0,1,1-.17h2.37a1.74,1.74,0,0,1,.62.12,1.43,1.43,0,0,1,.58.43,2.63,2.63,0,0,1,.44.8,3.7,3.7,0,0,1,.18,1.24Z" transform="translate(-205.82 -183.31)"/><path class="cls-3" d="M491.56,547.32a19.19,19.19,0,0,1-.92,6.06,13.48,13.48,0,0,1-2.81,4.88,12.93,12.93,0,0,1-4.71,3.26,17.17,17.17,0,0,1-6.62,1.17,15.28,15.28,0,0,1-3.8-.43,14.68,14.68,0,0,1-2.89-1,13.13,13.13,0,0,1-1.85-1.07,6.34,6.34,0,0,1-.89-.74,2.28,2.28,0,0,1-.37-.54,2.4,2.4,0,0,1-.19-.64q-.07-.37-.11-.89t0-1.17a4.18,4.18,0,0,1,.16-1.42.53.53,0,0,1,.49-.39,2,2,0,0,1,1.09.56q.7.56,1.83,1.3a12,12,0,0,0,2.82,1.3,13,13,0,0,0,4.06.56,11.77,11.77,0,0,0,4.3-.76,9.51,9.51,0,0,0,5.53-5.44,11.22,11.22,0,0,0,.78-4.26,13.48,13.48,0,0,0-.73-4.53,9.81,9.81,0,0,0-2.14-3.54,9.68,9.68,0,0,0-3.47-2.31,12.56,12.56,0,0,0-4.69-.82h-5.16a1,1,0,0,1-.54-.12,1,1,0,0,1-.36-.39,2.1,2.1,0,0,1-.21-.68,6.71,6.71,0,0,1-.06-1,6.07,6.07,0,0,1,.06-.95,2.35,2.35,0,0,1,.21-.7,1.07,1.07,0,0,1,.37-.43,1,1,0,0,1,.52-.14h4.71a12.19,12.19,0,0,0,4.14-.68,8.86,8.86,0,0,0,3.26-2,9.29,9.29,0,0,0,2.13-3.28,12.2,12.2,0,0,0,.76-4.49,12.38,12.38,0,0,0-.52-3.69,7.68,7.68,0,0,0-1.56-2.84,6.94,6.94,0,0,0-2.58-1.81,9.32,9.32,0,0,0-3.59-.64,11.47,11.47,0,0,0-3.81.58,16,16,0,0,0-2.82,1.28,20.75,20.75,0,0,0-2,1.32,2.44,2.44,0,0,1-1.23.62.44.44,0,0,1-.31-.1.8.8,0,0,1-.19-.35,2.88,2.88,0,0,1-.11-.66q0-.41,0-1,0-.41,0-.8a7.23,7.23,0,0,1,.1-.74,3.42,3.42,0,0,1,.18-.64,2.29,2.29,0,0,1,.34-.58,5.83,5.83,0,0,1,1.15-.91,12.92,12.92,0,0,1,2.29-1.17,21.07,21.07,0,0,1,3.12-1,16.44,16.44,0,0,1,3.76-.41,12.72,12.72,0,0,1,5.21,1,10.41,10.41,0,0,1,3.72,2.72,11.28,11.28,0,0,1,2.22,4.12,17.86,17.86,0,0,1,.73,5.23,17.12,17.12,0,0,1-.67,5,12.84,12.84,0,0,1-1.8,3.77,9.89,9.89,0,0,1-2.61,2.56,8.85,8.85,0,0,1-3.07,1.3v.08a9.5,9.5,0,0,1,3.67,1.46,11.31,11.31,0,0,1,3,2.91,14.69,14.69,0,0,1,2,4.12A16.82,16.82,0,0,1,491.56,547.32Z" transform="translate(-205.82 -183.31)"/><path class="cls-3" d="M546.21,561.16a1,1,0,0,1-.1.45.72.72,0,0,1-.34.33,2.69,2.69,0,0,1-.62.21,4.58,4.58,0,0,1-1,.08,4.45,4.45,0,0,1-.91-.08,2.36,2.36,0,0,1-.62-.21.73.73,0,0,1-.32-.33,1,1,0,0,1-.1-.45V513.07h-.06l-16.52,48.38a1,1,0,0,1-.19.31,1.06,1.06,0,0,1-.36.25,2.49,2.49,0,0,1-.54.17,3.79,3.79,0,0,1-.73.06,4.24,4.24,0,0,1-.78-.06,2.13,2.13,0,0,1-.54-.17,1.07,1.07,0,0,1-.34-.25.63.63,0,0,1-.16-.31l-15.71-48.38h0v48.09a1,1,0,0,1-.1.45.72.72,0,0,1-.34.33,2.68,2.68,0,0,1-.62.21,4.79,4.79,0,0,1-1,.08,4.4,4.4,0,0,1-.92-.08,2.34,2.34,0,0,1-.6-.21.64.64,0,0,1-.31-.33,1.21,1.21,0,0,1-.08-.45V511.26a2.69,2.69,0,0,1,.62-2,1.83,1.83,0,0,1,1.2-.56h2.14a4.12,4.12,0,0,1,1.43.23,3.21,3.21,0,0,1,1.09.66,3.81,3.81,0,0,1,.79,1.05,9.35,9.35,0,0,1,.59,1.4L524,554.36h.16l14.44-42.2a10,10,0,0,1,.7-1.67,4.93,4.93,0,0,1,.78-1.09,2.31,2.31,0,0,1,.88-.58,3.08,3.08,0,0,1,1-.17h2.37a1.74,1.74,0,0,1,.62.12,1.43,1.43,0,0,1,.58.43,2.63,2.63,0,0,1,.44.8,3.68,3.68,0,0,1,.18,1.24Z" transform="translate(-205.82 -183.31)"/><path class="cls-3" d="M593.65,534.71a53.32,53.32,0,0,1-1.15,11.56,27.66,27.66,0,0,1-3.46,8.82,17.11,17.11,0,0,1-22,5.73,15.09,15.09,0,0,1-5.52-5.36,25.83,25.83,0,0,1-3.18-8.51,57.12,57.12,0,0,1-1-11.33,52.49,52.49,0,0,1,1.14-11.37,26.69,26.69,0,0,1,3.46-8.72,16.61,16.61,0,0,1,5.81-5.58,16.33,16.33,0,0,1,8.19-2,16.07,16.07,0,0,1,7.92,1.85,15.28,15.28,0,0,1,5.53,5.32,25.6,25.6,0,0,1,3.25,8.41A53.78,53.78,0,0,1,593.65,534.71Zm-4.22.45a53.51,53.51,0,0,0-.7-8.88,24.15,24.15,0,0,0-2.3-7.21,12.66,12.66,0,0,0-4.27-4.82,11.73,11.73,0,0,0-6.59-1.75,11.35,11.35,0,0,0-6.57,1.83,13.79,13.79,0,0,0-4.35,4.92,23.78,23.78,0,0,0-2.4,7.21,49.76,49.76,0,0,0-.73,8.7,57.7,57.7,0,0,0,.66,9,24.09,24.09,0,0,0,2.26,7.27,12.5,12.5,0,0,0,4.25,4.84,11.85,11.85,0,0,0,6.65,1.75A11.35,11.35,0,0,0,582,556.2a13.82,13.82,0,0,0,4.35-5,24.61,24.61,0,0,0,2.37-7.29A51.32,51.32,0,0,0,589.43,535.16Z" transform="translate(-205.82 -183.31)"/><path class="cls-3" d="M647.42,561.08a1.14,1.14,0,0,1-.1.49.87.87,0,0,1-.31.35,1.72,1.72,0,0,1-.58.23,5.72,5.72,0,0,1-2,0,1.63,1.63,0,0,1-.63-.29,1.16,1.16,0,0,1-.34-.45,4.74,4.74,0,0,1-.21-.64l-3.73-14.22a20.57,20.57,0,0,0-1.61-4.35,11.12,11.12,0,0,0-2.27-3,8.29,8.29,0,0,0-3.05-1.79,12.36,12.36,0,0,0-3.91-.58h-2v24.4a1,1,0,0,1-.1.45.74.74,0,0,1-.33.33,2.35,2.35,0,0,1-.62.21,4.64,4.64,0,0,1-.94.08,4.39,4.39,0,0,1-.92-.08,2.36,2.36,0,0,1-.6-.21.64.64,0,0,1-.31-.33,1.21,1.21,0,0,1-.08-.45v-24.4h-2a11.43,11.43,0,0,0-4.19.7,9,9,0,0,0-3.08,2,11,11,0,0,0-2.17,3.09,22.64,22.64,0,0,0-1.46,4l-3.67,14.22a4.89,4.89,0,0,1-.21.64,1.16,1.16,0,0,1-.34.45,1.63,1.63,0,0,1-.63.29,5.72,5.72,0,0,1-2,0,1.7,1.7,0,0,1-.58-.23.88.88,0,0,1-.31-.35,1.15,1.15,0,0,1-.1-.49c0-.08,0-.18,0-.29s0-.24,0-.39,0-.31.08-.47a4.34,4.34,0,0,1,.15-.54l3.44-12.9a36.51,36.51,0,0,1,1.54-4.66,17.16,17.16,0,0,1,1.85-3.4,10,10,0,0,1,2.34-2.35,12.85,12.85,0,0,1,3-1.55v0a7.69,7.69,0,0,1-2.5-1.15,7.86,7.86,0,0,1-2-2.14,17.18,17.18,0,0,1-1.64-3.32,47.21,47.21,0,0,1-1.46-4.64l-3.18-12a7.14,7.14,0,0,1-.21-.84,4.54,4.54,0,0,1-.08-.84,1.65,1.65,0,0,1,.06-.5.67.67,0,0,1,.28-.35,1.65,1.65,0,0,1,.57-.23,4.35,4.35,0,0,1,.94-.08,4.6,4.6,0,0,1,1.09.1,1.63,1.63,0,0,1,.63.29,1,1,0,0,1,.32.47c.07.19.13.41.2.66l3.25,13.31a22.28,22.28,0,0,0,1.31,3.89,9.39,9.39,0,0,0,1.93,2.82,7.43,7.43,0,0,0,2.82,1.73,12.18,12.18,0,0,0,4,.58h2V509.49a1.22,1.22,0,0,1,.08-.45.64.64,0,0,1,.31-.33,2.29,2.29,0,0,1,.6-.21,4.39,4.39,0,0,1,.92-.08,4.63,4.63,0,0,1,.94.08,2.28,2.28,0,0,1,.62.21.73.73,0,0,1,.33.33,1.06,1.06,0,0,1,.1.45v22.79h2a10.6,10.6,0,0,0,3.91-.66,8.21,8.21,0,0,0,2.87-1.87,10.49,10.49,0,0,0,2-2.88,18.81,18.81,0,0,0,1.28-3.69l3.25-13.23c.07-.25.13-.47.2-.66a1,1,0,0,1,.32-.47,1.63,1.63,0,0,1,.63-.29,4.6,4.6,0,0,1,1.09-.1,4.35,4.35,0,0,1,.94.08,1.66,1.66,0,0,1,.57.23.67.67,0,0,1,.28.35,1.68,1.68,0,0,1,.06.5,3.35,3.35,0,0,1-.11.84,8.38,8.38,0,0,0-.18.84L642.59,523q-.65,2.43-1.33,4.27a15.34,15.34,0,0,1-1.56,3.15,9.45,9.45,0,0,1-2,2.23,9.88,9.88,0,0,1-2.71,1.48v.08a12.63,12.63,0,0,1,3.1,1.71,11.15,11.15,0,0,1,2.34,2.47,16.46,16.46,0,0,1,1.8,3.46,44.81,44.81,0,0,1,1.49,4.68l3.41,12.9c0,.19.09.37.13.54s.08.32.11.47a3.62,3.62,0,0,1,.06.39C647.42,560.9,647.42,561,647.42,561.08Z" transform="translate(-205.82 -183.31)"/><path class="cls-3" d="M680.72,559.76a6.19,6.19,0,0,1-.07.95,2.37,2.37,0,0,1-.21.7,1.2,1.2,0,0,1-.34.43.69.69,0,0,1-.42.14H660a1.83,1.83,0,0,1-1.2-.56,2.68,2.68,0,0,1-.62-2V511.26a2.69,2.69,0,0,1,.62-2,1.83,1.83,0,0,1,1.2-.56h19.37a.7.7,0,0,1,.42.14,1.07,1.07,0,0,1,.32.43,2.78,2.78,0,0,1,.2.72,6.94,6.94,0,0,1,.06,1,6.19,6.19,0,0,1-.06.95,2.44,2.44,0,0,1-.2.68,1.07,1.07,0,0,1-.32.41.69.69,0,0,1-.42.14H662.16V531.9H677a.75.75,0,0,1,.46.14,1.11,1.11,0,0,1,.32.41,2.49,2.49,0,0,1,.19.7,6.92,6.92,0,0,1,.07,1,5.77,5.77,0,0,1-.07.93,2.14,2.14,0,0,1-.19.64,1,1,0,0,1-.32.37.84.84,0,0,1-.46.12H662.16V557.5h17.52a.7.7,0,0,1,.42.14,1.25,1.25,0,0,1,.34.41,2.15,2.15,0,0,1,.21.7A7,7,0,0,1,680.72,559.76Z" transform="translate(-205.82 -183.31)"/><path class="cls-3" d="M736,561.16a1.05,1.05,0,0,1-.1.45.72.72,0,0,1-.34.33,2.68,2.68,0,0,1-.62.21,4.59,4.59,0,0,1-1,.08,4.45,4.45,0,0,1-.91-.08,2.34,2.34,0,0,1-.62-.21.73.73,0,0,1-.33-.33,1.05,1.05,0,0,1-.1-.45V513.07h-.07l-16.52,48.38a1,1,0,0,1-.2.31,1,1,0,0,1-.36.25,2.49,2.49,0,0,1-.54.17,3.79,3.79,0,0,1-.73.06,4.25,4.25,0,0,1-.78-.06,2.16,2.16,0,0,1-.54-.17,1.08,1.08,0,0,1-.34-.25.64.64,0,0,1-.16-.31l-15.71-48.38h0v48.09a1,1,0,0,1-.1.45.72.72,0,0,1-.34.33,2.68,2.68,0,0,1-.62.21,4.79,4.79,0,0,1-1,.08,4.39,4.39,0,0,1-.92-.08,2.36,2.36,0,0,1-.6-.21.65.65,0,0,1-.31-.33,1.23,1.23,0,0,1-.08-.45V511.26a2.69,2.69,0,0,1,.62-2,1.82,1.82,0,0,1,1.2-.56H696a4.13,4.13,0,0,1,1.43.23,3.23,3.23,0,0,1,1.09.66,3.83,3.83,0,0,1,.79,1.05,9.46,9.46,0,0,1,.58,1.4l13.86,42.36H714l14.44-42.2a9.87,9.87,0,0,1,.7-1.67,5,5,0,0,1,.78-1.09,2.31,2.31,0,0,1,.88-.58,3.08,3.08,0,0,1,1-.17h2.37a1.74,1.74,0,0,1,.62.12,1.43,1.43,0,0,1,.58.43,2.63,2.63,0,0,1,.44.8,3.7,3.7,0,0,1,.18,1.24Z" transform="translate(-205.82 -183.31)"/><path class="cls-3" d="M783.4,534.71a53.32,53.32,0,0,1-1.15,11.56,27.68,27.68,0,0,1-3.46,8.82,17.11,17.11,0,0,1-22,5.73,15.09,15.09,0,0,1-5.52-5.36,25.81,25.81,0,0,1-3.18-8.51,57.12,57.12,0,0,1-1-11.33,52.49,52.49,0,0,1,1.14-11.37,26.69,26.69,0,0,1,3.46-8.72,16.59,16.59,0,0,1,5.81-5.58,16.33,16.33,0,0,1,8.19-2,16.07,16.07,0,0,1,7.92,1.85,15.29,15.29,0,0,1,5.53,5.32,25.61,25.61,0,0,1,3.25,8.41A53.85,53.85,0,0,1,783.4,534.71Zm-4.22.45a53.52,53.52,0,0,0-.7-8.88,24.18,24.18,0,0,0-2.3-7.21,12.67,12.67,0,0,0-4.27-4.82,11.74,11.74,0,0,0-6.59-1.75,11.35,11.35,0,0,0-6.57,1.83,13.8,13.8,0,0,0-4.35,4.92,23.83,23.83,0,0,0-2.4,7.21,49.86,49.86,0,0,0-.73,8.7,57.58,57.58,0,0,0,.66,9,24.13,24.13,0,0,0,2.25,7.27,12.51,12.51,0,0,0,4.25,4.84,11.85,11.85,0,0,0,6.65,1.75,11.36,11.36,0,0,0,6.65-1.87,13.83,13.83,0,0,0,4.35-5,24.59,24.59,0,0,0,2.37-7.29A51.22,51.22,0,0,0,779.18,535.16Z" transform="translate(-205.82 -183.31)"/><path class="cls-3" d="M837.11,547.07a20.59,20.59,0,0,1-.44,4.37,16,16,0,0,1-1.25,3.67,12.45,12.45,0,0,1-2,2.93,11.75,11.75,0,0,1-2.64,2.16,12.19,12.19,0,0,1-3.2,1.34,15.73,15.73,0,0,1-4,.45H812.73a1.82,1.82,0,0,1-1.2-.56,2.68,2.68,0,0,1-.62-2V511.26a2.69,2.69,0,0,1,.62-2,1.82,1.82,0,0,1,1.2-.56h9a15.63,15.63,0,0,1,5.94.95,9.69,9.69,0,0,1,3.75,2.7,11.5,11.5,0,0,1,2.21,4.25,19.67,19.67,0,0,1,.73,5.54,18.72,18.72,0,0,1-.34,3.63,14.25,14.25,0,0,1-1,3.21,11.41,11.41,0,0,1-1.7,2.68,9.51,9.51,0,0,1-2.42,2,8.6,8.6,0,0,1,3.18,1.55,11.15,11.15,0,0,1,2.61,2.86,14.79,14.79,0,0,1,1.77,4A18.29,18.29,0,0,1,837.11,547.07Zm-6.95-24.64a14.86,14.86,0,0,0-.45-3.81,7.71,7.71,0,0,0-1.44-2.93,6.44,6.44,0,0,0-2.58-1.87,11.33,11.33,0,0,0-4.25-.66h-6.56v19.12h7.2a7.93,7.93,0,0,0,3.83-.8,7,7,0,0,0,2.4-2.16,9.67,9.67,0,0,0,1.4-3.15A15.13,15.13,0,0,0,830.16,522.43Zm2.73,25.06a14.89,14.89,0,0,0-.67-4.66,8.89,8.89,0,0,0-1.95-3.38,8.22,8.22,0,0,0-3.16-2.06,13.5,13.5,0,0,0-4.67-.7h-7.56V557.5H824a9.2,9.2,0,0,0,3.55-.64,7.84,7.84,0,0,0,2.73-1.9,9.17,9.17,0,0,0,1.88-3.13A12.44,12.44,0,0,0,832.89,547.48Z" transform="translate(-205.82 -183.31)"/><path class="cls-3" d="M875.37,554.73c0,.3,0,.58,0,.82a5,5,0,0,1-.1.66,2.79,2.79,0,0,1-.18.54,3.5,3.5,0,0,1-.42.64,11.37,11.37,0,0,1-1.35,1.28,15.57,15.57,0,0,1-2.61,1.75,18.82,18.82,0,0,1-3.62,1.48,15.54,15.54,0,0,1-4.51.62,14.72,14.72,0,0,1-7.17-1.75,15.47,15.47,0,0,1-5.47-5.13,26.15,26.15,0,0,1-3.47-8.32A47.38,47.38,0,0,1,845.22,536a48.12,48.12,0,0,1,1.3-11.68,28.83,28.83,0,0,1,3.65-8.78,16.93,16.93,0,0,1,5.65-5.52,14.23,14.23,0,0,1,7.29-1.92,14.67,14.67,0,0,1,3.65.45,18.51,18.51,0,0,1,3.26,1.15,14.69,14.69,0,0,1,2.68,1.61,9.77,9.77,0,0,1,1.62,1.46,5,5,0,0,1,.55.8,2.58,2.58,0,0,1,.18.56,5.76,5.76,0,0,1,.1.7c0,.26,0,.56,0,.89a9,9,0,0,1,0,1,3.23,3.23,0,0,1-.16.74,1.33,1.33,0,0,1-.28.47.53.53,0,0,1-.39.16q-.45,0-1.28-.84a21,21,0,0,0-2.17-1.87,15.72,15.72,0,0,0-3.29-1.87,11.61,11.61,0,0,0-4.64-.84,10.21,10.21,0,0,0-5.42,1.5,12.8,12.8,0,0,0-4.24,4.43,24.61,24.61,0,0,0-2.76,7.21,49.49,49.49,0,0,0-.08,19.29,22.68,22.68,0,0,0,2.63,6.94,12.24,12.24,0,0,0,4.25,4.31,11.14,11.14,0,0,0,5.74,1.48,11.54,11.54,0,0,0,4.59-.84,16.83,16.83,0,0,0,3.36-1.87,24.64,24.64,0,0,0,2.29-1.87,2.49,2.49,0,0,1,1.38-.84.51.51,0,0,1,.32.1.75.75,0,0,1,.21.37,4.09,4.09,0,0,1,.13.72A11,11,0,0,1,875.37,554.73Z" transform="translate(-205.82 -183.31)"/><path class="cls-3" d="M907.36,559.76a6.2,6.2,0,0,1-.06.95,2.37,2.37,0,0,1-.21.7,1.2,1.2,0,0,1-.34.43.69.69,0,0,1-.42.14H886.66a1.83,1.83,0,0,1-1.2-.56,2.68,2.68,0,0,1-.62-2V511.26a2.69,2.69,0,0,1,.62-2,1.83,1.83,0,0,1,1.2-.56H906a.7.7,0,0,1,.42.14,1.08,1.08,0,0,1,.32.43,2.82,2.82,0,0,1,.2.72,6.93,6.93,0,0,1,.06,1,6.18,6.18,0,0,1-.06.95,2.47,2.47,0,0,1-.2.68,1.08,1.08,0,0,1-.32.41.69.69,0,0,1-.42.14H888.8V531.9h14.86a.74.74,0,0,1,.45.14,1.11,1.11,0,0,1,.33.41,2.52,2.52,0,0,1,.19.7,6.93,6.93,0,0,1,.06,1,5.78,5.78,0,0,1-.06.93,2.17,2.17,0,0,1-.19.64,1,1,0,0,1-.33.37.83.83,0,0,1-.45.12H888.8V557.5h17.52a.7.7,0,0,1,.42.14,1.24,1.24,0,0,1,.34.41,2.15,2.15,0,0,1,.21.7A7,7,0,0,1,907.36,559.76Z" transform="translate(-205.82 -183.31)"/></svg>